<?xml version="1.0" encoding="utf-8"?>
<svg version="1.1" xmlns="http://www.w3.org/2000/svg" xmlns:xlink="http://www.w3.org/1999/xlink"
	x="0px" y="0px"
	viewBox="0 0 75.6 64" style="enable-background:new 0 0 75.6 64;" xml:space="preserve">
<style type="text/css">
	.st0{fill:#7AB218;}
	.st1{fill:#27A2E5;}
	.st2{fill:#29A2E3;}
	.st3{fill:#8CA199;}
</style>
<path class="st0" d="M37.9,14.9c0.7-2.3,1.2-4.6,1.7-6.9c0.1-0.5,0.3-0.9,0.4-1.4c0.1-0.4,0-0.7-0.5-0.6c-0.7,0.1-1.3,0-1.9-0.3
	c-0.3-0.1-0.4-0.1-0.1-0.4c0.6-0.8,1.4-1.4,2.1-2c1.3-1.1,2.5-2.1,3.7-3.3c0.2,0,0.4,0,0.7,0c0.3,0.7,0.1,1.4,0.2,2.2
	c0.2,0.8,0.1,1.7,0.2,2.6c0,0.6,0.4,1.1,0.4,1.7c0,0.3,0.2,0.9-0.1,1c-0.3,0.2-0.8,0.2-1.2-0.1c-0.2-0.2-0.4-0.2-0.7-0.3
	c-0.7-0.4-0.7-0.3-1,0.5c-0.2,0.8-0.5,1.6-0.7,2.4c-0.2,0.7-0.5,1.3-0.5,2c-0.4,1.7-0.7,3.3-1.3,4.9c-0.7,2-1.1,4.1-1.5,6.1
	c-0.1,0.3-0.1,0.6-0.2,0.8c-0.3,0.3-0.3,0.7-0.4,1.1c-0.5,1.7-1.1,3.4-1.4,5.1c-0.1,0.6-0.5,0.9-1,0.9c-1.3-0.1-2.5,0.3-3.8,0.3
	c-0.4,0-0.8,0.1-1,0.4c-0.7,0.8-1.6,1.5-2,2.6c-0.5,0-0.6,0.5-0.8,0.8c-0.5,0.6-0.9,1.2-1.2,1.9c-0.1,0.3-0.7,0.3-0.5,0.8
	c-0.4,0.4-0.6,0.9-1.1,1.2c-0.6,0.7-1.2,1.4-1.7,2.2c-0.3,0.5-1.2,0.9-1.4,0.6c-0.2-0.4-0.6-0.5-0.8-0.7c-0.8-0.7-1.6-1.4-2.4-2.1
	c-0.2-0.2-0.4-0.2-0.5-0.1c-0.6,0.6-1.4,0.9-1.9,1.6c-0.3,0.4-1,0.3-1.5-0.2c-0.8-0.7-0.8-0.7-1.7,0.1c-0.7,0.5-1.3,1.2-2,1.6
	c-0.4,0.2-0.8,0.1-1.1-0.1c-1.5-1.2-3-2.5-4.5-3.7c-0.4-0.3-0.9,0.1-1,0.2c-0.6,0.5-1,0.1-1.3-0.2c-0.7-0.7-1.5-1.1-2.4-1.6
	c-0.2-0.1-0.2-0.3-0.4-0.4c0-0.1,0-0.2,0-0.3c0.3-0.2,0.5-0.3,0.6-0.6C0.8,34.8,1.1,35,1.4,35c0.8,0,1,0.4,1.4,0.6
	C3,35.7,3.2,36,3.5,36c0.4,0.2,0.8,0.3,1.2,0c0.5-0.3,1-0.3,1.5,0.1c1.3,1,2.4,2.3,3.8,3.3c0.4,0.2,0.6,0.3,1,0
	c0.7-0.6,1.5-1.3,2.3-1.9c0.6-0.4,0.8-0.5,1.4,0.1c0.2,0.2,0.3,0.3,0.5,0.4c0.3,0.2,0.6,0.2,1-0.1c0.5-0.4,1.1-0.7,1.5-1.2
	c0.4-0.4,0.8-0.4,1.3,0c0.8,0.7,1.8,1.3,2.6,2.1c0.4,0.4,0.6,0.3,1-0.1c1.3-1.6,2.5-3.2,3.7-4.9c0.8-1.2,1.7-2.3,2.4-3.5
	c0.2-0.2,0.4-0.4,0.5-0.6c0.3-0.5,0.8-0.7,1.4-0.7c1.1-0.1,2.2,0.1,3.2-0.1c0.5-0.1,0.8-0.4,0.9-0.9c0.4-1.8,0.9-3.5,1.5-5.3
	c0.5-1.7,0.8-3.5,1.5-5.2c0.3-0.4,0.3-0.8,0.4-1.2C37.7,15.8,37.7,15.3,37.9,14.9z"/>
<path class="st1" d="M18.8,61.2c0.4-1.5,0.8-2.8,1.2-4.2c0.2-0.8,0.9-0.4,1.3-0.5s0.5,0.2,0.6,0.5c0.3,1.3,0.7,2.5,1.1,3.8
	c0.3-1,0.5-2,0.8-2.9c0-0.1,0-0.2,0.1-0.3c0.3-1,0.8-1.3,1.9-1.1c0.4,0.1,0.2,0.3,0.2,0.5c-0.4,1.4-0.8,2.9-1.2,4.3
	c-0.2,0.6-0.3,1.3-0.5,1.9c-0.1,0.4-0.3,0.6-0.7,0.5c-1.5,0-1.5,0-1.9-1.4c-0.2-0.8-0.4-1.7-0.7-2.6c-0.5,1-0.6,2-0.9,3
	c-0.1,0.3,0,0.9-0.4,1c-0.6,0.1-1.2,0.1-1.8,0c-0.2,0-0.2-0.3-0.3-0.4c-0.6-2.1-1.1-4.2-1.7-6.3c-0.1-0.4,0-0.5,0.4-0.6
	c1.4,0,1.4,0,1.7,1.3C18.2,59,18.5,60,18.8,61.2z"/>
<path class="st1" d="M6,60.8c0-1.4,0-2.5,0-3.7c0-0.4,0.1-0.6,0.5-0.6c1.2,0,1.2,0,1.2,1.2c0,1.9,0,3.7,0,5.6c0,0.4-0.1,0.5-0.5,0.5
	c-1,0.2-1.5-0.4-1.9-1.1c-0.6-1-1.3-2-2-3c-0.2,0.1-0.1,0.3-0.1,0.5c0,0.9-0.1,1.9,0,2.8c0.1,0.7-0.2,0.8-0.8,0.8S1.6,63.6,1.6,63
	c0-2,0-3.9,0-5.9c0-0.5,0.1-0.7,0.6-0.7c0.6,0,1.1,0.1,1.4,0.7C4.3,58.5,5.1,59.6,6,60.8z"/>
<path class="st1" d="M32.6,58.7c-0.5,0-1,0-1.5,0c-0.3,0-0.3-0.2-0.4-0.3c-0.4-0.6-1.2-0.6-1.6-0.1c-0.3,0.4-0.1,0.8,0.4,1
	c0.8,0.3,1.6,0.4,2.3,0.8c0.7,0.4,1.1,1.2,1,1.9c-0.3,1.1-0.9,1.8-1.9,1.8c-0.6,0-1.3,0-1.9,0c-0.9,0-1.8-0.9-1.8-1.8
	c0-0.4,0.1-0.5,0.5-0.5c0.6,0,1.3-0.2,1.5,0.7c0.1,0.4,0.8,0.2,1.2,0.2c0.3,0,0.5-0.3,0.6-0.5c0.1-0.4-0.1-0.6-0.4-0.7
	c-0.6-0.4-1.4-0.4-2-0.6c-0.8-0.3-1.3-0.8-1.3-1.5c0-1.3,0.3-2,1.3-2.4c0.9-0.4,1.8-0.4,2.7-0.1C32.1,56.9,32.5,57.7,32.6,58.7z"/>
<path class="st1" d="M9.7,60.3c0-1,0-2.1,0-3.1c0-0.4,0.1-0.6,0.6-0.6c1.3,0,2.6,0,3.8,0c0.4,0,0.5,0.2,0.5,0.5
	c-0.1,0.4,0.3,0.9-0.5,1c-0.7,0-1.4,0-2.1,0c-0.3,0-0.4,0.1-0.4,0.4c0,1.1-0.1,1.1,1,1.1c0.4,0,0.7,0,1.1,0c0.6-0.1,0.6,0.2,0.7,0.7
	c0,0.6-0.2,0.7-0.7,0.7c-0.5,0-1,0-1.6,0c-0.3,0-0.5,0.1-0.5,0.5c0,1.2,0,1.2,1.2,1.2c0.4,0,0.8,0,1.1,0c0.6-0.1,0.7,0.2,0.7,0.7
	s-0.1,0.7-0.7,0.7c-1.2,0-2.4,0-3.6,0c-0.4,0-0.6-0.1-0.6-0.6C9.7,62.3,9.7,61.3,9.7,60.3z"/>
<path class="st1" d="M63.3,60.2c0-1,0-2,0-3c0-0.4,0.1-0.6,0.6-0.6c1.2,0,2.4,0,3.6,0c0.4,0,0.5,0.1,0.5,0.5c0,1.2,0.1,0.9-0.9,1
	c-0.4,0-0.9,0-1.3,0C65.2,58,65,58.3,65,58.9c0,0.5,0.1,0.6,0.6,0.6c0.6,0,1.2,0,1.8,0c0.5,0,0.5,0.3,0.5,0.7c0,0.3,0.2,0.9-0.5,0.8
	c-0.6,0-1.2,0-1.8,0c-0.4,0-0.5,0.1-0.5,0.5c0,1,0,1,1,1c0.4,0,0.7,0,1.1,0c0.9,0,1.1,0.4,0.9,1.3C68,64.1,67.9,64,67.7,64
	c-1.3,0-2.6,0-3.9,0c-0.4,0-0.4-0.2-0.4-0.5C63.3,62.3,63.3,61.3,63.3,60.2z"/>
<path class="st0" d="M18.9,49.3c-0.9,0-1.9,0-2.8,0c0-2.5,0-4.9,0-7.4c0-0.5,0.1-0.6,0.6-0.6c0.6,0,1.2,0,1.8,0
	c0.4,0,0.5,0.1,0.5,0.5C18.9,44.3,18.9,46.8,18.9,49.3z"/>
<path class="st0" d="M15,49.3c-0.9,0-1.9,0-2.8,0c0-2.1,0-4.3,0-6.4c0-0.5,0.1-0.6,0.6-0.6c0.6,0,1.2,0,1.8,0c0.4,0,0.5,0.1,0.5,0.5
	C15,45,15,47.1,15,49.3z"/>
<path class="st1" d="M36.7,56.6c0.8,0,1.7,0,2.5,0c0.4,0,0.6,0.1,0.5,0.5s0.3,0.9-0.4,1c-0.4,0-0.7,0-1.1,0s-0.5,0.1-0.5,0.5
	c0,1.5,0,3.1,0,4.6c0,0.5-0.1,0.7-0.6,0.6c-1.3,0-1.3,0-1.3-1.3s0-2.6,0-3.9c0-0.5-0.1-0.7-0.6-0.6c-0.2,0-0.5,0-0.7,0
	c-0.7,0.1-0.8-0.2-0.8-0.8c0-0.5,0.1-0.7,0.7-0.7C35.2,56.6,35.9,56.6,36.7,56.6z"/>
<path class="st0" d="M7.2,49.3c-0.9,0-1.9,0-2.8,0c0-2.1,0-4.2,0-6.3c0-0.4,0.1-0.6,0.5-0.5c0.6,0,1.3,0,1.9,0
	c0.4,0,0.5,0.1,0.4,0.5C7.2,45,7.2,47.1,7.2,49.3z"/>
<path class="st0" d="M22.9,49.3c-1,0-2,0-3,0c0-1.9,0-3.9,0-5.8c0-0.4,0.1-0.6,0.5-0.5c0.6,0,1.3,0,2,0c0.4,0,0.5,0.1,0.5,0.5
	C22.9,45.4,22.9,47.3,22.9,49.3z"/>
<path class="st0" d="M26.7,49.3c-0.9,0-1.9,0-2.8,0c0-2,0-4,0-6.1c0-0.4,0.1-0.6,0.5-0.5c0.6,0,1.2,0,1.8,0c0.4,0,0.5,0.1,0.5,0.5
	C26.7,45.2,26.7,47.2,26.7,49.3z"/>
<path class="st0" d="M11,49.3c-0.9,0-1.9,0-2.8,0c0-2,0-3.9,0-5.9c0-0.4,0.2-0.5,0.5-0.5c0.6,0,1.2,0,1.8,0c0.4,0,0.5,0.1,0.5,0.5
	C11,45.4,11,47.3,11,49.3z"/>
<path class="st1" d="M25.1,40.5c0.3,0,0.5,0,0.8,0s0.5,0,0.6,0.3c0,0.3,0,0.6-0.4,0.7c-0.7,0.2-1.5,0.1-2.2,0
	c-0.3,0-0.2-0.4-0.2-0.6c0-0.3,0.1-0.4,0.4-0.4C24.4,40.5,24.7,40.5,25.1,40.5z"/>
<path class="st2" d="M24.7,39c0.4-0.4,0.4-1.1,1.1-1.2c0.4,0,0.7,0.2,0.7,0.7s-0.4,0.6-0.8,0.6C25.3,39,25,39,24.7,39z"/>
<path class="st1" d="M37.9,14.9c-0.1,0.7-0.2,1.5-0.3,2.2c0,0.2-0.1,0.4-0.3,0.5c-0.3-0.3-0.2-0.6-0.2-0.9c0-1,0-2.1,0-3.1
	c0-0.5-0.2-0.9-0.6-1.2c-1.7-1-3.5-1.8-5.4-2.4c-0.8-0.2-0.9-0.2-0.9,0.7c0,5.8,0,11.6,0,17.3c0,0.4,0.1,0.8-0.2,1.1
	c-0.6,0-1,0.3-1.2,0.8c-0.1,0.2-0.3,0.4-0.5,0.5l-0.1-0.1c-0.1-0.3-0.2-0.5-0.2-0.8c-0.1-0.4,0-0.8,0-1.2c0-5.7,0-11.4,0-17.1
	c0-0.2,0-0.5,0-0.7c0-0.5-0.2-0.7-0.7-0.6c-0.2,0-0.4,0-0.7,0c-7.4,0-14.6,0-22,0c-0.2,0-0.3,0-0.5,0C3.8,9.8,3.5,10,3.6,10.5
	c0,0.2,0,0.5,0,0.7c0,7.9,0,15.8,0,23.7c0,0.4,0.1,0.9-0.2,1.2c-0.5-0.4-1.1-0.7-1.6-1.1c0-8.8,0-17.7,0-26.5C1.7,8,1.8,7.8,2.4,7.8
	c9.1,0,18,0,27.1,0c2,0,4,0.7,5.8,1.7c0.8,0.4,1.5,0.9,2.3,1.3c0.3,0.2,0.5,0.4,0.5,0.8C37.8,12.7,37.9,13.8,37.9,14.9z"/>
<path class="st1" d="M37.7,23.9c0,2.2,0,4.4,0,6.5c0,5.3,0,10.6,0,15.8c0,0.6-0.1,1.2-0.2,1.8c0-0.1,0-0.3,0-0.4
	c-0.2-7.4-0.1-14.7-0.1-22.1c0-0.2,0-0.5,0-0.7C37.5,24.5,37.3,24.1,37.7,23.9z"/>
<path class="st1" d="M75.3,63.5c-0.4-0.7-0.9-1.5-1.3-2.2c-0.1-0.2-0.3-0.4,0-0.5c1-0.5,1.2-1.4,1.2-2.4c0-0.8-0.8-1.6-1.5-1.8
	c-1.1-0.2-2.3,0-3.5-0.1c-0.4,0-0.5,0.2-0.5,0.6c0,1.8,0,3.7,0,5.5c0,1.2,0,1.2,1.2,1.2c0.4,0.1,0.6,0,0.6-0.5s0-1.1,0-1.6
	c0-0.2,0.1-0.4,0.3-0.4s0.2,0.2,0.3,0.3c0.2,0.3,0.5,0.7,0.6,1c0.4,0.9,1,1.6,2.2,1.3c0.1,0,0.3,0,0.5,0
	C75.4,63.8,75.4,63.7,75.3,63.5z M73.3,59.6c-0.2,0.2-1.5,0.3-1.7,0.2c-0.1-0.1-0.1-0.2-0.1-0.3c0-0.2,0-0.4,0-0.5
	c0-0.9,0-0.9,0.9-0.9c0.4,0,0.9-0.1,1.1,0.4C73.6,58.9,73.7,59.3,73.3,59.6z"/>
<path class="st1" d="M74.4,7.8c-9.1,0-18,0-27,0c-0.3,0-0.6,0.1-0.9,0.1c-1.9,0.3-3.7,1-5.3,2.1c-0.5,0.6-0.7,1.2-0.6,1.9
	c0.3,0.3,0.7,0.2,1-0.3c0.4-0.2,0.9-0.5,1.3-0.8c0.8-0.5,1.7-0.9,2.6-1.1c0.5-0.1,0.7,0,0.7,0.5c0,0.3,0,0.5,0,0.7
	c0,6.8,0,13.6,0,20.4c0,5.5,0,11,0,16.5c0,1-0.1,1-1,1.2c-1.8,0.3-3.5,0.8-5,1.7c-1.4,0.8-2.7,0.7-4.1,0c-1.6-0.8-3.3-1.4-5.1-1.7
	c-0.9-0.1-0.9-0.2-0.9-1c0-2.4,0-4.7,0-7.1c0-2.8,0.1-5.7-0.1-8.6c0-0.2,0-0.5-0.2-0.7c-0.6,0.5-1.1,1.1-1.5,1.7
	c-0.2,0.3-0.5,0.5-0.3,0.9c0,4.5,0,9,0,13.5c0,1.6,0,1.6-1.6,1.5c-0.9-0.3-1.9-0.3-2.8,0c-0.3,0-0.6,0-0.9,0c-1-0.3-2-0.3-3,0
	c-0.4,0-0.7,0-1.1,0c-0.9-0.3-1.9-0.3-2.8,0c-0.4,0-0.7,0-1.1,0c-0.9-0.3-1.9-0.3-2.8,0c-0.4,0-0.8,0-1.2,0c-0.9-0.3-1.9-0.3-2.8,0
	c-0.3,0-0.6,0-0.9,0c-0.9-0.3-1.9-0.3-2.8,0c-1.1,0.1-1.1,0.1-1.1-1c0-2.8,0-5.7,0-8.5c0-0.3,0.1-0.5-0.2-0.7
	c-0.5-0.3-0.9-0.6-1.5-0.8c0,4,0,8,0,12c0,0.6,0.2,0.7,0.7,0.7c4.9,0,9.8,0,14.6,0c4.2,0,8.5,0,12.6,0c0.3,0.1,0.5,0,0.8,0.1
	c0.2,0,0.5,0,0.9,0c1.8,0.4,3.5,1,5.1,1.8c1.2,0.6,2.4,0.8,3.7,0.3c0.7-0.2,1.3-0.6,2-0.9c2-0.8,3.9-1.3,6.1-1.3
	c8.8,0,17.4,0,26.2,0c0.7,0,0.9-0.1,0.9-0.8c0-13.8,0-27.7,0-41.5C75.2,8,75,7.8,74.4,7.8z M73.4,29.5c0,6.4,0,12.7,0,19.1
	c0,0.6-0.1,0.7-0.7,0.7c-7.9,0-15.8,0-23.7,0c-0.6,0-0.7-0.2-0.7-0.7c0-12.8,0-25.5,0-38.3c0-0.5,0.1-0.7,0.7-0.7c8,0,15.8,0,23.8,0
	c0.6,0,0.7,0.2,0.7,0.7C73.4,16.7,73.4,23.1,73.4,29.5z"/>
<path class="st1" d="M59.8,56.9c-1.3-0.5-2.5-0.2-3.8-0.3c-0.5-0.1-0.6,0.2-0.6,0.6c0,1.6,0,3.2,0,4.8c0,0.6-0.2,1.4,0.1,1.8
	c0.4,0.4,1.2,0,1.7,0.1c0.6,0,1.1,0,1.5,0c1.1-0.1,2-0.6,2.7-1.6c0.5-0.7,0.5-1.6,0.5-2.4C61.9,58.5,61,57.4,59.8,56.9z M57.9,62.4
	c-0.5,0-0.7-0.1-0.6-0.6c0.1-1-0.1-2-0.1-3c0-0.6,0.2-0.8,0.8-0.8c1.3,0.1,2.1,0.8,2.1,2.2C60.1,61.7,59.3,62.4,57.9,62.4z"/>
<path class="st1" d="M45.2,61.5c-0.3-0.4-0.2-0.5,0.2-0.7c0.9-0.4,1.1-1.2,1-2.1c0-0.8-0.5-1.5-1.3-1.8c-1.3-0.6-2.7-0.2-4-0.3
	c-0.4,0-0.3,0.3-0.3,0.5c0,2.1,0,4.2,0,6.3c0,0.4,0,0.5,0.4,0.5c1.5,0.1,1.5,0.1,1.5-1.4v-0.1c0.1-0.3-0.3-0.9,0.2-1
	c0.5-0.1,0.6,0.5,0.7,0.8c0.5,1.4,1.4,2.2,3,1.6C46.1,63,45.8,62.2,45.2,61.5z M43.4,59.9c-0.9,0.1-0.6-0.4-0.7-0.9c0-1,0-1,0.9-1
	c0.8,0,1.2,0.3,1.2,0.9C44.8,59.5,44.3,59.8,43.4,59.9z"/>
<path class="st1" d="M52.5,57.9c-0.1-0.4-0.2-1.1-0.5-1.3c-0.4-0.2-1-0.1-1.5-0.1c-0.4-0.1-0.6,0.1-0.7,0.4
	c-0.8,2.3-1.6,4.6-2.4,6.9c0.6,0,1,0,1.5,0c0.2,0,0.5,0,0.5-0.3c0.1-0.9,0.7-1,1.4-0.9c0.3,0,0.7,0,1.1,0c0.3,0,0.5,0.1,0.5,0.4
	c0,0.8,0.5,1,1.2,0.9c0.2,0,0.5,0,0.9,0C53.7,61.9,53,59.9,52.5,57.9z M51.6,61.1c0,0.1-1.4,0.1-1.5,0c-0.1-0.1,0-0.2,0-0.3
	c0.2-0.6,0.4-1.3,0.6-2.1c0.5,0.7,0.6,1.5,0.9,2.2C51.6,61,51.6,61,51.6,61.1z"/>
<path class="st3" d="M28.5,30.4c-0.2-0.2-0.1-0.4-0.1-0.7C28.6,29.9,28.4,30.2,28.5,30.4z"/>
<path class="st1" d="M15.7,13.5c3.3,0,6.7,0,10,0c0.3,0,0.7-0.1,0.8,0.5c0,0.6-0.3,0.6-0.7,0.6c-6.7,0-13.4,0-20.1,0
	c-0.4,0-0.8-0.1-0.8-0.5c0-0.5,0.3-0.5,0.7-0.5C9,13.5,12.4,13.5,15.7,13.5z"/>
<path class="st1" d="M15.6,24.6c3.4,0,6.7,0,10,0c0.3,0,0.8-0.2,0.8,0.5c0,0.6-0.4,0.6-0.9,0.6c-3.4,0-6.7,0-10,0s-6.6,0-9.9,0
	c-0.2,0-0.5,0.1-0.7-0.1s-0.2-0.5-0.2-0.7c0.1-0.3,0.4-0.3,0.6-0.3c3,0,5.9,0,8.9,0C14.7,24.6,15.1,24.6,15.6,24.6z"/>
<path class="st1" d="M15.5,22.8c-3.3,0-6.7,0-10,0c-0.4,0-0.8,0.2-0.8-0.4c0-0.5,0.3-0.6,0.8-0.6c6.7,0,13.3,0,20,0
	c0.1,0,0.3,0,0.4,0c0.3,0.1,0.6,0.2,0.5,0.6c-0.1,0.3-0.3,0.4-0.6,0.4C22.4,22.8,19,22.8,15.5,22.8z"/>
<path class="st1" d="M15.7,27.3c3.3,0,6.6,0,9.9,0c0.3,0,0.8-0.2,0.8,0.5c0,0.6-0.4,0.6-0.9,0.6c-6.6,0-13.1,0-19.6,0
	c-0.1,0-0.3,0-0.4,0c-0.3-0.1-0.7-0.1-0.7-0.6s0.4-0.5,0.8-0.5C9,27.3,12.4,27.3,15.7,27.3z"/>
<path class="st1" d="M15.6,17.3c-3.3,0-6.7,0-10,0c-0.2,0-0.4,0-0.5,0c-0.2-0.1-0.4-0.2-0.4-0.5c0-0.2,0.1-0.4,0.3-0.5
	c0.2-0.1,0.5-0.1,0.7-0.1c6.6,0,13.1,0,19.7,0c0.1,0,0.2,0,0.3,0c0.4,0,0.6,0.2,0.6,0.6c0,0.5-0.3,0.5-0.6,0.5
	C22.4,17.3,19,17.3,15.6,17.3z"/>
<path class="st1" d="M15.5,20.1c-3.3,0-6.5,0-9.8,0c-0.2,0-0.4,0-0.5,0c-0.3,0-0.4-0.2-0.5-0.5c0-0.3,0.1-0.4,0.4-0.5
	c0.2-0.1,0.4,0,0.6,0c6.6,0,13.2,0,19.8,0c0.4,0,0.8,0,0.8,0.5s-0.4,0.5-0.8,0.5C22.2,20.1,18.9,20.1,15.5,20.1z"/>
<path class="st1" d="M15.4,31.1c-3.3,0-6.6,0-9.9,0c-0.3,0-0.7,0.1-0.8-0.4c-0.1-0.5,0.4-0.5,0.7-0.6C5.6,30,5.8,30,6,30
	c6.5,0,12.9,0,19.4,0c0.1,0,0.1,0,0.2,0c0.4,0,0.7,0.1,0.7,0.5s-0.3,0.6-0.7,0.6c-0.7,0-1.3,0-2,0C20.9,31.1,18.1,31.1,15.4,31.1z"
	/>
<path class="st1" d="M12.5,33c2.2,0,4.3,0,6.5,0c0.4,0,0.9,0.1,1.3,0.1c0.2,0,0.4,0.1,0.4,0.5c0,0.3-0.2,0.4-0.5,0.5
	c-1.4,0.2-2.8,0.2-4.2,0c-0.2,0-0.4,0-0.7,0c-3.2,0-6.4,0-9.6,0c-0.4,0-0.9,0.1-0.9-0.5s0.6-0.6,1-0.6C8.1,33,10.3,33,12.5,33z"/>
<path class="st1" d="M24.1,34.3c-0.4,0-0.7-0.1-0.7-0.6s0.4-0.5,0.8-0.5s0.6,0.1,0.6,0.5C24.8,34.2,24.5,34.3,24.1,34.3z"/>
<path class="st1" d="M42.2,31.2c-0.6,0-1.1,0-1.7,0c-0.2,0-0.5,0.1-0.5-0.2s-0.2-0.7,0.2-0.8c0.2-0.1,0.5-0.2,0.8-0.2c1,0,2,0,3,0
	c0.4,0,0.8,0,0.8,0.5s-0.4,0.6-0.7,0.7c-0.5,0.1-1,0-1.5,0C42.5,31.2,42.3,31.2,42.2,31.2z"/>
<path class="st1" d="M42.4,33.6c-0.7,0-1.3,0-2,0c-0.4,0-0.6-0.2-0.6-0.6c0-0.4,0.2-0.5,0.6-0.5c1.3,0,2.6,0,3.9,0
	c0.4,0,0.6,0.1,0.6,0.5s-0.3,0.6-0.7,0.6C43.7,33.6,43,33.6,42.4,33.6z"/>
<path class="st1" d="M42.3,44.2c-0.6,0-1.2,0-1.8,0c-0.4,0-0.6-0.1-0.6-0.4c0-0.3,0.1-0.6,0.6-0.6c1.3,0,2.6,0,3.8,0
	c0.4,0,0.5,0.1,0.5,0.5s-0.2,0.6-0.6,0.6C43.7,44.2,43,44.2,42.3,44.2z"/>
<path class="st1" d="M42.6,24.6c0.6,0,1.2,0,1.8,0c0.4,0,0.6,0.1,0.6,0.5s-0.3,0.5-0.6,0.5c-1.3,0-2.6,0-3.9,0
	c-0.3,0-0.6-0.1-0.5-0.6s0.4-0.5,0.7-0.5C41.3,24.6,41.9,24.6,42.6,24.6z"/>
<path class="st1" d="M42.6,21.9c0.6,0,1.3,0,1.9,0c0.3,0,0.5,0.1,0.5,0.4s-0.1,0.5-0.4,0.6c-0.2,0-0.4,0.1-0.6,0.1
	c-1.1,0-2.2,0-3.3,0c-0.4,0-0.7-0.1-0.7-0.6c0-0.4,0.2-0.6,0.7-0.5C41.3,21.9,41.9,21.9,42.6,21.9z"/>
<path class="st1" d="M42.4,28.8c-0.6,0-1.1,0-1.7,0c-0.4,0-0.7-0.1-0.7-0.6s0.4-0.5,0.7-0.5c1.2,0,2.4,0,3.6,0
	c0.3,0,0.7,0.1,0.7,0.4c0.1,0.4-0.3,0.6-0.6,0.6C43.7,28.8,43.1,28.8,42.4,28.8L42.4,28.8z"/>
<path class="st1" d="M42.4,41.7c-0.6,0-1.2,0-1.8,0c-0.4,0-0.5-0.2-0.5-0.6c0-0.4,0.2-0.5,0.5-0.5c1.2,0,2.5,0,3.7,0
	c0.4,0,0.6,0.2,0.6,0.5c0,0.4-0.2,0.5-0.6,0.5C43.6,41.7,43,41.7,42.4,41.7z"/>
<path class="st1" d="M42.3,36.3c-0.6,0-1.2,0-1.8,0c-0.2,0-0.6,0.2-0.6-0.3c0-0.4,0.2-0.6,0.6-0.6c0.5,0,0.9,0,1.4,0
	c0.7,0,1.4,0,2.2,0c0.3,0,0.8-0.2,0.8,0.5s-0.5,0.4-0.8,0.4C43.5,36.4,42.9,36.3,42.3,36.3z"/>
<path class="st1" d="M42.4,17.3c-0.6,0-1.3,0-1.9,0c-0.4,0-0.5-0.1-0.5-0.5s0.2-0.5,0.5-0.5c1.3,0,2.5,0,3.8,0
	c0.4,0,0.5,0.1,0.5,0.5s-0.3,0.5-0.6,0.5C43.7,17.3,43.1,17.3,42.4,17.3z"/>
<path class="st1" d="M33.6,32.4c0.5,0,1,0,1.5,0c0.4,0,0.7,0.1,0.7,0.6c0,0.4-0.3,0.5-0.6,0.5c-1,0-2,0-3,0c-0.4,0-0.6-0.1-0.6-0.5
	s0.3-0.6,0.7-0.6C32.6,32.4,33.1,32.4,33.6,32.4z"/>
<path class="st1" d="M42.4,19.2c0.6,0,1.2,0,1.8,0c0.3,0,0.6,0,0.6,0.4s-0.3,0.5-0.6,0.5c-0.9,0-1.8,0-2.7,0c-0.2,0-0.5,0-0.7,0
	c-0.3,0-0.7,0.2-0.7-0.5c0-0.6,0.4-0.5,0.7-0.5C41.4,19.2,41.9,19.2,42.4,19.2z"/>
<path class="st1" d="M43,38c0.4,0,0.9,0,1.3,0c0.3,0,0.5,0.1,0.6,0.4c0.1,0.3-0.1,0.5-0.4,0.6c-0.1,0-0.3,0.1-0.5,0.1
	c-0.8,0-1.7,0-2.5,0c-0.3,0-0.7-0.1-0.7-0.5s0.3-0.6,0.7-0.6C42,38,42.5,38,43,38z"/>
<path class="st1" d="M33.7,40.7c0.5,0,1.1,0,1.6,0c0.3,0,0.6,0.2,0.6,0.5s-0.2,0.5-0.6,0.5c-1.1,0-2.2,0-3.2,0
	c-0.3,0-0.5-0.1-0.5-0.5c0-0.3,0.1-0.5,0.5-0.5C32.6,40.7,33.1,40.7,33.7,40.7z"/>
<path class="st1" d="M33.5,44.2c-0.5,0-1,0-1.5,0c-0.3,0-0.5-0.1-0.5-0.4c0-0.3,0.2-0.5,0.4-0.5c1.2,0,2.4,0,3.6,0
	c0.2,0,0.4,0.1,0.3,0.3c-0.1,0.3-0.1,0.6-0.5,0.6C34.7,44.2,34.1,44.2,33.5,44.2z"/>
<path class="st1" d="M33.6,35.4c0.5,0,1,0,1.5,0c0.3,0,0.5,0.1,0.5,0.4c0,0.3-0.1,0.6-0.5,0.5c-1,0-2,0-3,0c-0.4,0-0.6-0.2-0.6-0.5
	s0.3-0.4,0.6-0.4C32.6,35.4,33.1,35.4,33.6,35.4z"/>
<path class="st1" d="M33.4,38.9c-0.4,0-0.9,0-1.3,0c-0.3,0-0.5-0.1-0.5-0.5c0-0.3,0.1-0.5,0.5-0.5c0.9,0,1.9,0,2.8,0
	c0.3,0,0.5,0.1,0.5,0.5c0,0.3-0.1,0.5-0.5,0.5C34.4,38.9,33.9,38.9,33.4,38.9z"/>
<path class="st1" d="M33.5,20.1c-0.5,0-1,0-1.5,0c-0.3,0-0.6-0.1-0.6-0.5c0-0.3,0.2-0.6,0.5-0.6c1.1,0,2.2,0,3.3,0
	c0.3,0,0.5,0.2,0.5,0.6c0,0.3-0.2,0.5-0.5,0.5C34.7,20.1,34.1,20.1,33.5,20.1z"/>
<path class="st1" d="M33.5,17.3c-0.5,0-1,0-1.5,0c-0.3,0-0.5-0.1-0.5-0.4s0.1-0.5,0.5-0.5c1.1,0,2.2,0,3.2,0c0.3,0,0.5,0.2,0.5,0.5
	c0,0.4-0.2,0.5-0.5,0.5C34.6,17.3,34,17.3,33.5,17.3z"/>
<path class="st1" d="M33.5,22.8c-0.5,0-1,0-1.5,0c-0.3,0-0.6-0.2-0.6-0.5s0.2-0.4,0.6-0.4c0.9,0,1.8,0.1,2.7-0.1
	c0.3-0.1,0.8-0.1,0.8,0.5s-0.3,0.5-0.7,0.5C34.4,22.8,33.9,22.8,33.5,22.8z"/>
<path class="st1" d="M32.6,25.6c-0.4,0-1,0.2-1.1-0.5c0-0.3,0.7-0.6,1.3-0.5c0.2,0,0.4,0.1,0.6,0.1c0.2,0,0.5,0.1,0.5,0.4
	s-0.2,0.5-0.5,0.5C33.1,25.7,32.8,25.6,32.6,25.6z"/>
<path class="st1" d="M33.4,27.7c0,0.4-0.6,0.8-1.1,0.7c-0.6-0.1-0.9-0.4-0.7-0.8s1.5-0.4,1.7-0.1C33.4,27.6,33.4,27.6,33.4,27.7z"/>
<path class="st1" d="M60.7,14.6c-3.4,0-6.8,0-10.2,0c-0.3,0-0.5,0-0.7-0.4c-0.1-0.3,0.1-0.4,0.2-0.6c0.2-0.2,0.4-0.1,0.6-0.1
	c4.5,0,9,0,13.4,0c2.2,0,4.5,0,6.7,0c0.5,0,0.8,0.1,0.8,0.6c0,0.4-0.4,0.5-0.8,0.5C67.3,14.6,63.9,14.6,60.7,14.6z"/>
<path class="st1" d="M60.6,20.1c-3.3,0-6.7,0-10,0c-0.4,0-0.9,0-0.9-0.6c0-0.4,0.4-0.5,0.9-0.5c6.7,0,13.3,0,20,0
	c0.4,0,0.8,0.1,0.8,0.5S71,20,70.6,20C67.3,20.1,63.9,20.1,60.6,20.1z"/>
<path class="st1" d="M60.7,17.3c-3.4,0-6.7,0-10,0c-0.4,0-0.8,0-0.8-0.4c0-0.5,0.4-0.7,0.9-0.7c6.7,0,13.3,0,19.9,0
	c0.3,0,0.7,0,0.8,0.4c0.1,0.5-0.1,0.7-0.7,0.7c-3,0-6,0-9,0C61.4,17.3,61.1,17.3,60.7,17.3z"/>
<path class="st1" d="M60.7,27.3c3.3,0,6.7,0,10,0c0.4,0,0.7,0,0.7,0.5s-0.3,0.6-0.7,0.6c-6.7,0-13.4,0-20.1,0
	c-0.4,0-0.7-0.1-0.7-0.5s0.3-0.6,0.7-0.6C53.9,27.3,57.3,27.3,60.7,27.3z"/>
<path class="st1" d="M60.7,41.1c3.3,0,6.7,0,10,0c0.4,0,0.9,0,0.9,0.5s-0.4,0.6-0.9,0.6c-6.3,0-12.6,0-18.9,0c-0.5,0-1-0.2-1.5-0.1
	c-0.2,0-0.5,0-0.5-0.3s0.1-0.5,0.4-0.6c0.2,0,0.4,0,0.5,0C54,41.1,57.4,41.1,60.7,41.1z"/>
<path class="st1" d="M60.6,22.8c-3.3,0-6.6,0-9.9,0c-0.2,0-0.3,0-0.5,0c-0.3,0-0.5-0.2-0.5-0.5c0-0.2,0.1-0.4,0.4-0.5
	c0.3,0,0.6-0.1,0.9-0.1c6.5,0,12.8,0,19.3,0c0.2,0,0.3,0,0.5,0c0.3,0.1,0.5,0.3,0.5,0.6c0,0.3-0.2,0.4-0.5,0.4c-0.2,0-0.4,0-0.5,0
	C67.1,22.8,63.8,22.8,60.6,22.8z"/>
<path class="st1" d="M60.7,31.1c-3.3,0-6.7,0-10,0c-0.2,0-0.4,0-0.5,0c-0.2-0.1-0.5-0.2-0.4-0.5c0-0.2,0.1-0.4,0.4-0.4
	c0.8,0,1.7-0.1,2.5-0.1c5.9,0,11.8,0,17.6,0c0.2,0,0.3,0,0.5,0c0.4,0,0.6,0.2,0.6,0.6s-0.2,0.5-0.6,0.5c-1.9,0-3.8,0-5.7,0
	C63.6,31.1,62.2,31.1,60.7,31.1z"/>
<path class="st1" d="M60.6,44.8c-3.4,0-6.8,0-10.2,0c-0.2,0-0.5,0.1-0.6-0.3c-0.1-0.3,0-0.6,0.2-0.6c0.5,0,0.9-0.3,1.4-0.2
	c0.8,0.2,1.5,0.2,2.3,0c0.2,0,0.4,0,0.6,0c5.3,0,10.7,0,15.9,0c0.3,0,0.7,0,1,0.2c0.2,0.1,0.3,0.3,0.2,0.5s-0.2,0.3-0.5,0.4
	c-0.2,0-0.3,0-0.5,0C67.2,44.8,63.9,44.8,60.6,44.8z"/>
<path class="st1" d="M60.7,24.6c3.4,0,6.7,0,10.1,0c0.3,0,0.6-0.1,0.8,0.3c0.1,0.2,0,0.4-0.1,0.5c-0.2,0.2-0.5,0.4-0.8,0.2
	c-0.4-0.2-0.8,0.1-1.2,0.1c-3.6,0-7.2,0.1-10.8,0c-2.3-0.1-4.7,0-7-0.1c-0.4,0-0.8,0-1.2,0c-0.4,0-0.5-0.2-0.5-0.5s0.2-0.5,0.5-0.5
	c0.2,0,0.3,0,0.5,0C54.1,24.6,57.4,24.6,60.7,24.6z"/>
<path class="st1" d="M60.5,38.9c-3.4,0-6.7,0-10.1,0c-0.3,0-0.8,0.1-0.7-0.4c0-0.5,0.4-0.5,0.8-0.5c6.8,0,13.4,0,20.2,0
	c0.3,0,0.6,0,0.6,0.5S71,39,70.6,39C67.3,38.9,63.9,38.9,60.5,38.9z"/>
<path class="st1" d="M56.6,34.6c-2,0-4,0-6.1,0c-0.3,0-0.7,0-0.7-0.4s0.3-0.5,0.7-0.5c4.1,0,8.2,0,12.3,0c0.4,0,0.6,0.1,0.6,0.5
	c0,0.3-0.2,0.5-0.6,0.4C60.7,34.6,58.6,34.6,56.6,34.6z"/>
<path class="st1" d="M68,34.6c-0.9,0-1.7,0-2.6,0c-0.3,0-0.6,0-0.6-0.5c0-0.4,0.2-0.6,0.5-0.6c1.7,0,3.5,0,5.2,0
	c0.4,0,0.8,0.2,0.8,0.6c0,0.4-0.4,0.5-0.8,0.5C69.7,34.6,68.8,34.6,68,34.6z"/>
</svg>